<?xml version="1.0" encoding="UTF-8" standalone="no"?>
<svg
   xmlns:dc="http://purl.org/dc/elements/1.1/"
   xmlns:cc="http://creativecommons.org/ns#"
   xmlns:rdf="http://www.w3.org/1999/02/22-rdf-syntax-ns#"
   xmlns:svg="http://www.w3.org/2000/svg"
   xmlns="http://www.w3.org/2000/svg"
   xmlns:sodipodi="http://sodipodi.sourceforge.net/DTD/sodipodi-0.dtd"
   xmlns:inkscape="http://www.inkscape.org/namespaces/inkscape"
   version="1.1"
   id="svg62"
   width="1258.2168"
   height="449.45599"
   viewBox="0 0 1258.2168 449.45599"
   sodipodi:docname="shivang typescape green.svg"
   inkscape:export-filename="Shivang typescape.png"
   inkscape:export-xdpi="96"
   inkscape:export-ydpi="96"
   inkscape:version="1.0 (1.0+r73+1)">
  <metadata
     id="metadata68">
    <rdf:RDF>
      <cc:Work
         rdf:about="">
        <dc:format>image/svg+xml</dc:format>
        <dc:type
           rdf:resource="http://purl.org/dc/dcmitype/StillImage" />
        <dc:title></dc:title>
      </cc:Work>
    </rdf:RDF>
  </metadata>
  <defs
     id="defs66" />
  <sodipodi:namedview
     inkscape:document-rotation="0"
     pagecolor="#ffffff"
     bordercolor="#666666"
     borderopacity="1"
     objecttolerance="10"
     gridtolerance="10"
     guidetolerance="10"
     inkscape:pageopacity="0"
     inkscape:pageshadow="2"
     inkscape:window-width="1366"
     inkscape:window-height="704"
     id="namedview64"
     showgrid="false"
     fit-margin-top="0"
     fit-margin-left="0"
     fit-margin-right="0"
     fit-margin-bottom="0"
     inkscape:zoom="0.1756808"
     inkscape:cx="857.90077"
     inkscape:cy="746.88333"
     inkscape:window-x="0"
     inkscape:window-y="27"
     inkscape:window-maximized="1"
     inkscape:current-layer="g70" />
  <g
     inkscape:groupmode="layer"
     inkscape:label="Image"
     id="g70"
     transform="translate(150.9805,-812.5459)">
    <path
       d="m -5.1425781,804.55664 c -4.2985491,0.0748 -8.6088359,1.45752 -12.0097659,4.10938 -1.697017,0.42498 -3.357091,1.1386 -4.577558,2.43192 -0.652157,0.57401 -1.532829,0.82197 -2.180254,1.4255 -1.220157,0.92774 -2.116425,2.22149 -2.847494,3.53008 -1.608708,1.10048 -3.245647,2.2518 -4.414225,3.82929 -1.086663,0.61054 -1.920404,1.56483 -2.757993,2.45167 -2.376621,1.22874 -4.504547,3.12647 -5.534976,5.63622 -0.679304,0.87617 -1.148739,1.89616 -1.577793,2.90096 -1.129484,1.26421 -1.739891,2.9027 -2.646816,4.29045 -3.404602,1.34448 -5.728143,5.06835 -5.304688,8.72461 -0.178849,0.75117 -0.960886,1.17087 -1.322265,1.84766 -1.007756,1.40229 -1.624371,3.04661 -2.058164,4.69728 -1.546761,2.31208 -3.479146,4.43147 -4.368161,7.11996 -0.255886,0.78779 -0.349586,1.64167 -0.935261,2.2719 -0.9273,1.38131 -1.373391,3.01013 -1.904045,4.55829 -1.502636,2.00467 -2.813865,4.29435 -2.97851,6.84671 -1.779814,1.90378 -2.803594,4.527 -2.654297,7.14062 -0.893406,1.82844 -1.236845,3.90537 -1.078125,5.92383 -0.725354,2.38374 -1.942426,4.66491 -2.006318,7.20839 -0.309995,1.69487 -0.872379,3.33991 -1.011871,5.06858 -0.280612,1.98231 -0.348598,4.02227 -0.757201,5.96912 -2.712555,2.74629 -3.160615,7.53194 -0.720703,10.5918 -0.13776,5.49631 0.70185,10.96674 1.603515,16.375 0.715189,3.77789 1.516864,7.59461 3.123047,11.10742 0.371747,0.61403 0.736731,1.23696 0.712436,1.97666 0.449861,3.10948 1.580869,6.06572 2.562359,9.03502 1.702253,4.65577 3.870663,9.12742 6.171024,13.51277 2.401135,4.42153 5.515489,8.38659 8.585431,12.3525 0.920217,1.25397 1.910927,2.47416 2.496837,3.92778 1.100338,2.29516 3.148153,3.94379 5.364491,5.09761 0.735869,0.5091 1.166764,1.38229 1.941854,1.87656 0.653689,0.56684 1.476848,0.91444 2.199972,1.34273 2.612813,3.27222 5.65357,6.16802 8.546509,9.18714 4.806267,4.84985 9.67861,9.65765 14.93946,14.01565 1.291256,0.9037 2.8194864,1.4696 3.9025974,2.6576 2.7796777,2.5753 5.4801149,5.2356 8.29021962,7.7784 1.22813508,1.1744 2.57216738,2.2848 3.56965748,3.6595 1.2394232,2.637 3.0154594,4.9772 4.7991837,7.2559 0.5985113,2.0267 2.0487598,3.6898 3.7002808,4.9351 2.213567,3.5999 3.448509,7.7799 3.52313,12.0073 0.06426,2.4064 -0.02952,4.8403 -0.481223,7.206 -0.656765,1.9276 -1.627582,3.7451 -2.053007,5.751 -0.318995,1.1121 -0.472486,2.2916 -0.845431,3.374 -0.993228,1.162 -1.613008,2.5991 -2.0390622,4.0449 -0.7517007,0.8349 -1.2303173,1.8786 -1.7263869,2.856 -1.5362787,1.2944 -2.5299845,3.133 -3.0219255,5.055 -0.694181,1.0839 -0.9696798,2.3777 -1.4088112,3.5518 -1.6460816,1.572 -3.43264007,3.1386 -4.2920952,5.3068 -3.0115692,3.203 -6.0971869,6.3993 -9.653816,9.0082 -1.217856,0.7396 -2.247386,1.7502 -3.264153,2.7203 -0.883313,0.5135 -1.552255,1.32 -2.25797,2.0178 -2.02604,0.8646 -4.128807,1.7089 -5.775233,3.2185 -1.340922,0.4529 -2.624343,1.0546 -3.921875,1.6152 -0.858373,-6.8303 -2.473487,-13.5521 -4.68804,-20.0672 -1.087149,-3.4 -1.903348,-6.8778 -2.746244,-10.3421 -0.513584,-1.7992 -1.517934,-3.4022 -2.511088,-4.96 -1.213017,-3.1219 -2.344138,-6.3868 -4.635628,-8.9136 -1.188794,-1.3148 -2.075997,-2.8453 -2.868589,-4.4209 -1.270988,-2.4773 -2.803989,-4.8087 -4.560834,-6.968 -7.456486,-9.6455 -16.759157,-17.7607 -26.8777,-24.5103 -2.166429,-1.383 -4.427718,-2.6771 -6.897033,-3.4351 -3.046625,-2.9635 -6.980568,-4.7431 -10.764363,-6.558 -4.473444,-2.0045 -9.145494,-3.7643 -14.040534,-4.3424 -1.12879,-0.081 -2.34224,0 -3.32445,-0.6558 -4.0527,-1.7533 -8.57266,-1.6797 -12.90209,-1.5877 -2.96159,0.1517 -5.99371,0.7101 -8.55487,2.2737 -2.30181,0.9494 -4.84457,1.0916 -7.1608,2.0124 -3.7646,1.2414 -7.52994,3.0735 -10.10923,6.1701 -0.39412,0.6544 -1.27,0.7646 -1.82335,1.2717 -1.9238,1.3458 -3.43611,3.3239 -4.07617,5.5957 -2.11408,1.7023 -3.34862,4.4054 -3.33399,7.1114 -1.75313,3.5113 -1.52151,7.5459 -1.58388,11.3578 0.0428,4.1664 0.26708,8.3731 1.23935,12.436 0.82054,2.4199 1.98383,4.7138 2.64408,7.1899 0.68045,2.1482 1.47597,4.2788 2.64967,6.2116 -0.31167,3.0323 1.02,6.2171 3.50977,7.9961 0.68371,1.9276 1.88913,3.6558 3.42593,4.9903 1.78145,3.1821 3.11513,6.8513 6.16391,9.0839 1.03114,1.1252 1.74089,2.5075 2.62687,3.747 0.9072,1.4122 1.98289,2.7198 3.06844,3.9835 0.81278,1.8415 2.19218,3.3563 3.65821,4.705 0.72415,2.5886 2.78867,4.7755 5.36132,5.5801 4.00436,3.3796 7.46053,7.6264 12.38001,9.7398 0.7375,0.2252 1.14141,0.9643 1.78154,1.3673 3.06503,2.4273 6.49492,4.3578 9.98489,6.0995 1.66267,0.8005 3.424522,1.3962 5.145584,2.0284 2.485493,1.8158 5.569716,2.4178 8.428364,3.3992 1.260606,0.4121 2.67266,0.4589 3.76843,1.2602 2.190616,1.2467 4.773876,1.1885 7.207273,1.3366 1.427066,0.1522 2.704011,0.3352 4.159839,0.5413 5.476081,0.8353 11.003594,1.826 16.581156,2.0212 7.293147,0.3823 14.716539,0.3805 21.850641,-1.3663 1.741738,-0.4587 3.366907,-1.3463 5.138059,-1.6655 2.488047,-0.1116 4.765692,-1.2065 6.963836,-2.2734 1.525358,-0.5592 3.19493,-0.6399 4.658583,-1.3933 0.734467,-0.3867 1.493672,-0.6321 2.328385,-0.6963 2.198058,-0.4107 4.3223619,-1.5351 5.6585712,-3.3635 1.9614156,-0.8813 3.7177397,-2.1683 5.3164063,-3.5879 3.00792764,-0.98 5.3293352,-3.2595 7.640625,-5.3164 1.6908135,-1.5744 3.2424351,-3.3035 4.7265625,-5.0625 1.072275,-0.5458 1.987481,-1.3657 2.855469,-2.1641 3.055868,-0.9986 5.335797,-3.6786 6.324218,-6.6797 2.233742,-1.7036 3.368367,-4.3479 4.637874,-6.7597 1.563449,-2.1779 3.511769,-4.0718 4.836925,-6.4228 1.356755,-2.1701 2.243322,-4.628 3.793752,-6.672 1.906491,-1.9885 3.260555,-4.4579 3.967058,-7.1169 0.206987,-0.691 0.389044,-1.3893 0.592517,-2.0813 3.109646,1.7464 6.736358,2.5539 10.291015,2.1738 3.876766,-0.3357 7.664192,-1.4458 11.229498,-2.9761 1.612928,-0.7207 3.041632,-1.7901 4.392406,-2.8992 3.427497,-1.7392 6.061499,-4.6041 8.991377,-7.0212 2.9823,-0.1208 5.713994,-2.1653 6.886719,-4.8789 0.132049,-0.5652 0.596207,-0.7165 1.087379,-0.9051 2.799623,-1.3259 4.679163,-3.9245 6.191918,-6.5324 0.877095,-1.3115 1.922322,-2.5 2.996094,-3.6523 0.741603,3.3739 2.020987,6.6228 3.631679,9.6727 1.386104,2.4129 3.159504,4.8971 5.900212,5.8466 2.694265,1.0252 5.819135,0.6204 8.228185,-0.9372 4.01964,-2.182 7.64516,-5.0273 11.05049,-8.0622 1.19822,-1.1202 2.17066,-2.4804 2.88865,-3.9398 2.3799,-2.5787 3.83215,-5.831 5.34999,-8.9537 1.20223,-2.5244 2.23839,-5.1487 2.93126,-7.853 0.92804,-1.0448 1.45854,-2.3766 2.03386,-3.6089 1.71152,-1.4076 2.77372,-3.546 2.9388,-5.7485 0.65784,-0.8971 0.94493,-2.0243 1.54687,-2.9297 1.96015,-2.0172 2.66081,-4.8895 2.81055,-7.6211 0.74048,-0.9163 1.27306,-1.9889 1.79744,-3.0215 1.595,-1.3911 2.59814,-3.3813 2.9467,-5.4472 0.84721,-1.4591 1.33486,-3.0861 1.83399,-4.6875 0.2739,-0.8869 0.68487,-1.9966 1.13722,-2.9225 1.03233,-2.41085 2.02512,-4.84681 3.30613,-7.14004 0.18883,3.12864 1.13788,6.22859 2.97313,8.79004 0.61975,0.7809 0.99609,1.6828 1.20415,2.6539 0.61021,2.5553 1.9687,4.8907 3.21056,7.1092 0.82949,1.3197 0.82912,2.9167 1.39537,4.3381 1.56356,4.2433 3.97395,8.1044 6.29226,11.9659 2.36778,3.811 5.0538,7.4403 8.19602,10.6507 0.5654,1.0256 0.93737,2.1807 1.7856,3.0359 2.29689,2.6717 6.07537,3.6647 9.48006,3.1117 0.61073,-0.1174 1.19685,0.012 1.73612,0.2882 4.55359,1.535 9.53945,0.3419 13.68665,-1.807 0.94472,-0.466 1.71418,-1.2911 2.80651,-1.4065 2.62332,-0.7674 4.64757,-2.7608 6.30389,-4.8493 3.59282,-0.5696 6.5975,-3.0749 8.47613,-6.1018 1.00335,-1.3741 1.97561,-2.771 2.90668,-4.1951 2.43327,4.0668 5.03075,8.0719 8.16156,11.6419 2.81593,3.181 6.40097,5.6808 10.42017,7.083 4.16831,1.4771 8.61924,1.9722 13.01709,2.099 2.349,0.049 4.78188,-0.52 6.60454,-2.0713 0.92382,-0.4176 1.93871,-0.688 2.86468,-1.1358 3.89506,-1.7355 7.53976,-4.0021 10.99585,-6.4886 2.40609,-1.7722 4.55712,-3.8566 6.68029,-5.9478 1.16838,-0.6954 2.31648,-1.4509 3.1654,-2.536 2.29474,-2.609 3.66859,-5.8557 5.06828,-8.9946 1.20096,-2.9884 1.43379,-6.5147 -0.10211,-9.4313 -2.2294,-4.6598 -7.928,-7.4133 -12.94146,-5.9809 -3.74722,0.8738 -7.2885,2.7203 -10.10841,5.3387 -1.27489,1.2757 -2.13788,2.9306 -2.59777,4.6499 -0.79981,0.9769 -1.66802,2.0523 -2.96639,2.3188 -1.19091,0.4456 -2.1967,1.2674 -3.11674,2.1043 -0.87103,0.2407 -1.6395,1.1538 -2.59615,0.6965 -1.52284,-0.5657 -2.51084,-1.96 -3.61848,-3.0752 -3.27062,-3.7596 -5.6437,-8.202 -7.72198,-12.703 -0.77439,-1.6421 -1.11299,-3.4414 -1.1203,-5.24944 -0.21088,-4.67594 -0.24082,-9.36273 -0.10693,-14.0413 0.0885,-2.4653 0.24742,-5.01315 0.50988,-7.53932 0.15621,-1.45985 0.36317,-3.2058 0.5775,-4.77434 0.28052,-2.61869 0.93672,-5.19848 0.98421,-7.83815 0.002,-4.66425 -1.53791,-9.35956 -4.41796,-13.03907 -2.90092,-3.3652 -7.4233,-5.17822 -11.83204,-5.07226 -3.77273,0.17976 -7.32241,2.2644 -9.46385,5.35278 -2.87302,3.93699 -3.56169,8.88792 -4.3632,13.56543 -0.36727,2.27089 -0.93746,4.50212 -1.59014,6.7035 -1.19372,5.49317 -1.28311,11.1366 -1.87187,16.70837 0.0406,0.72876 -0.61389,1.43364 -0.82812,2.18164 -0.44309,1.14896 -0.61768,2.3931 -0.85938,3.57812 -1.30633,1.38896 -1.96668,3.25935 -2.21908,5.11535 -0.51809,1.14359 -0.66795,2.42319 -1.00162,3.60539 -1.83854,2.3367 -2.49167,5.3757 -4.35706,7.6846 -1.18578,1.009 -2.23933,2.1996 -3.0863,3.4833 -1.35387,0.7045 -2.59082,1.732 -3.85547,2.4883 -1.81778,-2.2964 -3.69479,-4.545 -5.70703,-6.6738 -1.08866,-1.4648 -1.74661,-3.2038 -2.51242,-4.8516 -1.94968,-4.5616 -3.63516,-9.23029 -5.45808,-13.8432 -1.50759,-3.57215 -2.14056,-7.41534 -3.32134,-11.09267 -1.48005,-5.02756 -4.01376,-9.65271 -5.74136,-14.58754 -1.21848,-2.51933 -3.44471,-4.33309 -4.92969,-6.67578 -2.01739,-2.60541 -5.0964,-4.40572 -8.40998,-4.62584 -3.12658,-0.3272 -6.33992,-0.0443 -9.34393,0.88365 -1.71729,0.61735 -3.23293,1.71985 -4.45021,3.06053 -1.15333,0.7106 -2.25637,1.62493 -3.20994,2.51369 0.67767,-2.32159 0.81398,-4.7534 1.17577,-7.13556 0.9572,-7.72607 1.57417,-15.49068 2.13765,-23.25393 0.62944,-9.65974 0.85075,-19.4296 -0.74203,-29.01289 -0.5368,-2.89763 -0.27902,-5.874 -0.88386,-8.76099 -0.52094,-2.8562 -1.60207,-5.59506 -1.81058,-8.51046 -0.40381,-4.60445 -0.60334,-9.24844 -1.62629,-13.77252 -0.80063,-3.93646 -2.08983,-7.74756 -3.37997,-11.54334 -0.61009,-1.91204 -0.58882,-3.94534 -1.04424,-5.88441 -0.31214,-1.28786 -1.01171,-2.44493 -1.58662,-3.60838 -0.18958,-2.21401 -0.917,-4.44163 -2.37655,-6.15034 -0.35908,-1.42796 -1.018,-2.76503 -1.67188,-4.0664 -0.0774,-2.66093 -1.59612,-5.17216 -3.78711,-6.64453 -2.25171,-3.92786 -5.36987,-7.31678 -8.84521,-10.19203 -1.04413,-0.76293 -2.25317,-1.25966 -3.19971,-2.15368 -3.13398,-2.18578 -7.11407,-2.48608 -10.818962,-2.45838 -3.258616,0.1041 -6.784261,1.07572 -8.905704,3.70785 -0.603137,0.56128 -1.462462,0.86296 -2.076679,1.45522 -3.384921,2.83221 -5.191076,6.98812 -7.004173,10.90171 -0.85671,2.00976 -2.080728,3.86764 -2.583839,6.01626 -1.018842,1.52759 -1.733889,3.27355 -2.044249,5.09577 -0.323939,1.50791 -0.343272,3.07221 -0.672326,4.57228 -0.590093,1.36344 -1.450328,2.66197 -1.736779,4.10201 -1.71299,6.01878 -1.738383,12.32599 -2.534241,18.49205 -0.330998,1.07774 -0.786706,2.12262 -0.947266,3.25391 -0.743547,4.3909 -0.615603,8.87647 -1.308035,13.2761 -0.61981,5.93912 -0.369038,11.92273 -0.445626,17.88366 0.0077,7.96065 0.0439,15.93122 0.55615,23.87655 0.386476,2.36283 0.804182,4.72186 0.953289,7.11509 0.927985,9.57456 1.753522,19.16294 3.12188,28.68773 1.471454,10.85883 3.022542,21.71755 3.783772,32.6555 0.413275,4.86191 0.667849,9.80831 2.194039,14.48001 0.36724,1.4375 0.613538,2.9124 0.701172,4.3945 -0.305683,0.5217 -0.334902,1.235 -0.960989,1.4862 -1.707766,1.2199 -3.043161,2.999 -3.60737,5.0314 -1.648831,1.4862 -3.088144,3.233 -4.879644,4.5425 -3.07987,1.1444 -5.347937,4.1213 -5.759028,7.3657 -2.695774,2.1879 -5.419917,4.4151 -8.601563,5.8652 -1.766055,0.9843 -3.300165,2.423 -4.283203,4.1934 -0.772713,0.4761 -1.346653,1.2644 -2.144531,1.6718 -2.567787,0.5501 -4.934019,1.8396 -6.957031,3.4864 -0.771517,0.351 -0.549226,-0.4042 -0.50586,-0.9024 0.153452,-2.7279 0.380621,-5.5044 -0.11127,-8.2085 -0.238412,-1.2552 -0.83614,-2.4206 -1.441131,-3.5086 -0.07449,-3.265 -0.213908,-6.7305 -2.035612,-9.5662 -0.4129,-0.7162 -1.038704,-1.3014 -1.543939,-1.9239 -1.157483,-3.7486 -3.52312,-6.9327 -5.434454,-10.3103 -0.09202,-3.2888 -2.477177,-6.263 -5.583984,-7.25 -2.603493,-3.6698 -5.729055,-6.956 -9.089782,-9.938 -1.217268,-1.08107 -2.559281,-2.03028 -4.000062,-2.77494 -2.022565,-2.20269 -4.015636,-4.57734 -6.7480469,-5.93359 -1.1114757,-0.6825 -1.9737526,-1.72775 -2.9317178,-2.61212 -2.1695091,-2.19078 -4.31408363,-4.4439 -6.6893759,-6.39765 -1.0559822,-2.58177 -3.4036604,-4.43957 -5.9511719,-5.4082 -0.9715498,-1.34386 -2.4053915,-2.25991 -3.8736205,-2.96482 -1.65274,-1.44651 -3.100632,-3.16491 -3.98573,-5.18826 -1.083426,-1.98066 -2.736697,-3.73646 -4.873071,-4.56372 -0.949976,-0.87141 -1.892269,-1.82493 -2.300787,-3.07661 -1.633041,-3.26393 -4.416193,-5.73538 -6.406431,-8.75055 -0.56667,-1.72509 -1.188119,-3.43158 -2.020344,-5.05067 -0.864187,-1.78521 -1.792307,-3.55352 -2.954079,-5.16514 -0.247692,-2.3087 -0.789673,-4.69671 -2.269531,-6.54882 -0.931912,-3.31552 -1.92348,-6.61921 -2.843644,-9.93447 -0.220032,-1.54492 -0.357186,-3.30413 -0.447372,-4.73155 -0.0743,-1.30751 -0.117489,-2.39646 -0.153892,-3.71577 -0.09432,-4.29269 -0.239241,-8.75362 -0.08637,-13.11168 0.07921,-1.65892 0.07792,-3.35464 0.351594,-4.9831 1.040119,-2.20688 1.376064,-4.64755 1.800782,-7.02539 0.0892,-0.70824 0.393772,-1.66207 0.6999,-2.42468 0.786988,-2.0585 1.676388,-4.12308 1.934865,-6.32727 1.916395,-2.73263 2.36376,-6.11023 3.428372,-9.19601 1.103583,-2.83517 2.715216,-5.4357 3.872409,-8.24735 2.479232,-1.6428 3.949932,-4.67702 3.716797,-7.64062 1.355789,-1.94104 2.634859,-4.0069 3.128907,-6.35352 0.818494,-1.72559 2.108627,-3.17488 3.184899,-4.74208 0.750513,-0.96704 1.380876,-2.06041 2.119265,-3.00992 3.459199,-1.74883 6.063313,-4.71288 9.2524761,-6.85542 1.4169098,2.84156 2.5538508,5.83669 3.3421136,8.91248 0.5238357,2.16237 0.31396,4.45093 1.1316735,6.54907 0.4829856,1.59205 1.3202537,3.0508 1.95874374,4.56995 0.50384773,2.44155 0.49929004,4.89038 0.57990476,7.32282 0.20937143,6.03935 0.32289905,12.08585 0.15943942,18.1281 -0.10493325,0.82933 0.1488158,1.94648 -0.37173013,2.76058 -0.96977399,1.97014 -1.66709129,4.28125 -2.48199899,6.4022 -0.4669198,1.13919 -0.876377,2.3378 -1.7728975,3.21731 -1.2613619,1.67171 -1.9002108,3.81973 -1.6839203,5.90897 -0.9870561,2.27306 -1.4821858,4.78608 -2.9878237,6.80769 -1.7812875,2.78334 -3.2798325,5.84787 -3.5984095,9.18048 -0.641218,5.08961 1.173903,10.67226 5.379202,13.80089 4.3043017,3.27442 10.775514,3.51815 15.1361684,0.21523 4.3971206,-2.96513 7.8045116,-7.41602 9.4575816,-12.45741 1.530309,-1.49469 2.073754,-3.63512 2.64459,-5.62071 1.0935,-2.61825 2.563502,-5.13785 2.982363,-7.98476 2.121391,-2.90932 3.189236,-6.42695 4.064323,-9.87722 1.420538,-5.96868 1.518983,-12.1768 2.06263,-18.20286 0.282749,-4.71006 0.765319,-9.46048 0.197266,-14.16601 -0.233161,-1.42578 -0.872908,-2.74997 -1.492292,-4.02547 -0.143171,-2.31037 -0.34893,-4.61859 -0.860586,-6.88068 -1.313412,-6.79418 -3.247526,-13.49649 -6.061185,-19.82628 -0.480284,-0.72933 -0.810311,-1.52259 -0.890625,-2.39648 -0.762276,-3.23761 -2.293226,-6.2226 -3.653863,-9.23728 -2.527336,-5.23494 -5.864389,-10.37309 -10.8773866,-13.52639 -2.489059,-1.46203 -5.36841323,-2.1309 -8.2304688,-2.30078 -0.3143122,-0.28162 -1.177832,0.007 -1.6988548,-0.0607 -0.1251213,0.005 -0.2502426,0.009 -0.3753639,0.0138 z M 1076.1641,818.50781 c -4.1343,0.0559 -8.2379,2.11879 -10.5413,5.5901 -2.7,3.48846 -4.6815,7.63031 -5.1931,12.04271 -1.6201,2.01433 -2.028,4.66175 -2.2096,7.16126 -0.7147,3.52203 -1.9952,6.93032 -2.3001,10.53218 -1.2534,8.6002 -1.5598,17.29735 -2.0841,25.96282 -0.019,1.13141 -0.4615,2.39559 -0.8121,3.53524 -0.7709,3.17537 0.4524,6.34482 0.5107,9.52603 0.6256,8.30953 0.3589,16.70753 1.819,24.93873 -0.5232,3.27508 0.5311,6.5028 1.1294,9.69051 0.9961,4.35932 2.0418,8.75842 2.0105,13.25887 0.058,3.55057 0.1821,7.52266 2.3543,10.55647 -0,3.07254 -0.2979,6.202 0.4296,9.2168 -0.3566,2.04366 0.088,4.11173 0.6094,6.08594 -0.7231,1.15212 -1.826,2.00806 -2.6445,3.09301 -3.8321,4.41496 -7.1701,9.32007 -11.6875,13.09254 -1.5035,0.34189 -2.8591,1.16746 -4.0195,2.13476 -1.4266,0.37799 -2.7935,1.03161 -3.9375,1.95899 -2.7701,-0.28534 -4.821,-2.34436 -6.8868,-3.9961 -2.2505,-1.95611 -4.4575,-4.0221 -6.2129,-6.4414 -0.6857,-1.3957 -1.1565,-2.91536 -2.1152,-4.16016 -0.4667,-2.15189 -0.6923,-4.3703 -1.4076,-6.46941 -0.4744,-1.44187 -0.3255,-3.00405 -0.4557,-4.50325 -0.1755,-6.39053 -0.2535,-12.78718 -0.035,-19.17773 0.035,-0.85449 0.07,-1.85438 0.1218,-2.72242 0.063,-2.25966 0.8813,-4.49971 0.4272,-6.77119 -0.1018,-0.8061 -0.4709,-1.56373 -0.7148,-2.30684 -0.1041,-6.63211 -6.2304,-12.44449 -12.8436,-12.30747 -4.0141,0.19619 -8.319,1.03467 -11.32642,3.90712 -2.30951,2.12491 -3.65257,5.13582 -4.02163,8.22619 -0.6603,4.10025 -0.0873,8.25464 -0.22656,12.37891 -1.30297,2.75977 -0.97991,5.87636 -1.187,8.8278 -0.31928,1.15913 -0.59601,2.34844 -0.79151,3.51985 -0.69111,1.08547 -0.90066,2.38917 -1.33204,3.56445 -1.46862,2.10079 -1.95963,4.6879 -2.27539,7.17188 -1.51309,2.17518 -2.24765,4.77282 -2.73437,7.3457 -1.43481,1.11308 -2.56188,2.57469 -3.58239,4.04397 -1.85226,1.1441 -3.15447,3.04921 -3.75355,5.11619 -0.81337,1.0758 -1.13883,2.4406 -2.10023,3.41789 -2.45602,3.16263 -5.23911,6.07646 -8.31774,8.63875 -0.47286,-0.74878 -0.31193,-1.7334 -0.45876,-2.59026 -0.21191,-3.31626 -0.26429,-6.66109 0.0778,-9.96947 0.61531,-3.22231 0.98205,-6.48595 1.12978,-9.76324 0.1815,-3.30508 0.45128,-6.61618 1.21345,-9.84557 0.96104,-4.44464 0.22056,-9.40092 -2.68838,-12.99762 -3.38405,-4.17138 -9.00895,-6.20425 -14.2964,-5.73303 -4.01017,0.4616 -7.54121,3.30144 -9.07706,7.00271 -1.60796,3.51988 -1.65019,7.48982 -2.97455,11.10016 -0.90064,3.17266 -1.03018,6.5021 -1.38092,9.7514 -1.73364,2.5069 -1.90898,5.73272 -1.41797,8.6543 -0.81429,1.50465 -1.14781,3.26764 -1.02929,4.97265 -0.5963,1.61101 -0.86645,3.3379 -1.70761,4.85631 -1.14501,2.43559 -2.32446,4.88428 -3.77958,7.14432 -1.16301,1.19876 -2.02193,2.68187 -2.54026,4.25504 -0.97195,1.1885 -2.13129,2.2353 -3.45302,3.0217 -0.85747,-0.9892 -1.64844,-2.0648 -2.33008,-3.168 -0.16776,-1.22238 -0.76705,-2.33039 -1.28723,-3.41413 -0.24154,-3.7244 0.0717,-7.46188 0.40408,-11.17154 0.39718,-4.01865 1.18422,-7.98268 1.96581,-11.9388 0.88862,-5.71188 1.54499,-11.50288 1.28017,-17.28947 -0.44212,-4.72461 -3.15841,-9.1578 -7.17388,-11.69019 -1.1062,-0.74711 -2.29494,-1.35885 -3.4409,-2.04079 -1.13766,-3.28746 -2.98359,-6.29381 -5.08364,-9.05197 -1.92802,-2.43713 -4.06367,-4.76687 -6.59996,-6.58084 -0.9255,-0.66397 -2.00887,-1.07377 -2.987,-1.62293 -2.97222,-2.39202 -6.92109,-2.75648 -10.57047,-3.18318 -3.23215,-0.28619 -6.61207,-0.40652 -9.7101,0.70455 -0.91292,0.48641 -1.85212,0.89716 -2.81836,1.26211 -1.77517,0.79703 -3.17428,2.19783 -4.57055,3.50006 -3.51842,1.73392 -6.04195,4.84307 -8.7068,7.61923 -1.65707,1.79851 -3.12484,3.78904 -4.347,5.89225 -1.70759,1.29065 -2.91727,3.20514 -3.41081,5.28299 -1.72099,2.0384 -3.08677,4.35134 -4.38476,6.66602 -1.39285,1.32143 -2.2454,3.13245 -2.61915,4.98632 -1.79147,2.47579 -2.44317,5.513 -3.1832,8.41524 -0.40654,1.06806 -0.76527,2.23997 -1.70156,2.96758 -1.11385,1.17648 -1.73304,2.72559 -2.12103,4.2654 -0.95699,1.41927 -1.26478,3.13296 -1.53132,4.78538 -1.90283,-1.20098 -3.70379,-2.54774 -5.39021,-4.03689 -4.62738,-3.92197 -9.45442,-7.60629 -14.50876,-10.96157 -1.71794,-1.16741 -3.51594,-2.23914 -5.27681,-3.3199 -1.51613,-2.81869 -4.67355,-4.46031 -7.81043,-4.59415 -0.75426,-0.21639 -1.77231,-0.0548 -2.2423,-0.80429 -1.36642,-1.51324 -3.31572,-2.36886 -5.27762,-2.74721 -3.21391,-1.97082 -6.74617,-3.36619 -10.31027,-4.55943 -0.67397,-0.73006 -1.52077,-1.29954 -2.4043,-1.75195 -0.86348,-4.16745 -0.83931,-8.45437 -0.85208,-12.69179 0.0554,-2.76043 0.0907,-5.54296 0.59622,-8.26524 1.14302,-0.96602 1.96117,-2.26984 2.5,-3.64844 2.07483,-2.01207 3.6009,-4.50808 5.6861,-6.51327 2.43337,-2.55867 5.12417,-5.0893 6.48187,-8.41056 2.53308,-2.46921 5.40372,-4.83201 6.77344,-8.19727 2.40608,-1.6457 5.03804,-2.97854 7.20734,-4.95508 2.58533,-2.06533 4.79037,-4.52733 7.48812,-6.45059 2.55867,-1.39307 4.71195,-3.38941 6.82798,-5.36386 0.86471,0.11199 1.79163,0.11552 2.60547,0.4043 2.80658,2.31577 7.12811,2.25957 10,0.0879 2.1032,-1.46058 3.46786,-3.70669 4.56742,-5.96161 2.40795,-2.52496 2.75033,-6.43723 1.64588,-9.63411 -1.47565,-4.25531 -3.26539,-8.5599 -6.37261,-11.90044 -2.96164,-3.1083 -7.36188,-4.91594 -11.66534,-4.32486 -5.13097,0.55422 -9.57001,3.51205 -13.56905,6.57061 -4.06177,3.16501 -7.75918,6.78461 -11.99107,9.73283 -4.05145,3.18355 -7.46457,7.07354 -11.03711,10.76367 -1.43637,1.53882 -2.78429,3.18161 -4.16992,4.74805 -1.23578,0.57082 -2.34413,1.39463 -3.29492,2.36524 0.71025,-3.36325 0.84805,-6.81754 0.94423,-10.24335 -0.0386,-5.40043 -1.27151,-10.7499 -3.19254,-15.77848 -1.2692,-3.16537 -3.02109,-6.39269 -6.05673,-8.17294 -5.9623,-3.63271 -14.23433,-2.47398 -19.20927,2.34099 -2.70875,2.50681 -4.35333,6.13086 -4.31934,9.83537 -0.0276,2.85329 0.52079,5.6841 1.18783,8.4452 0.33739,1.03664 0.97619,2.0005 0.87867,3.13555 0.1655,2.42008 0.2908,4.84495 0.37798,7.19832 0.36135,10.32224 0.4901,20.71299 0.39917,31.07565 -0.073,2.79344 -0.078,5.52644 -0.31636,8.29984 -0.23326,2.03931 -0.79031,4.28985 -2.57887,5.52757 -1.80602,1.54476 -3.28588,3.54214 -3.97415,5.83628 -1.14178,1.18578 -1.96092,2.65711 -2.51449,4.18872 -1.32945,1.66169 -2.27563,3.57907 -3.35128,5.32169 -1.17321,2.0832 -3.17117,3.51149 -4.45165,5.51929 -3.11852,4.49083 -3.73941,10.77873 -1.08681,15.63175 2.0703,3.80324 6.18058,6.05144 10.32739,6.84057 3.95105,0.84391 8.00826,0.47258 12.01044,0.69524 0.49343,1.00169 1.0545,1.99933 1.09473,3.14357 0.72609,5.77769 1.46763,11.58859 3.13897,17.185 0.67655,2.40824 1.71429,4.69406 2.33066,7.11985 0.89028,3.21195 2.23791,6.28705 3.84004,9.20405 1.74265,3.1581 4.41941,5.8076 7.70075,7.3392 3.39154,1.5852 7.1426,2.2243 10.84249,2.5868 2.45705,0.2778 5.05773,-0.1908 7.04704,-1.7274 2.42772,-1.7529 3.77557,-4.7486 3.69931,-7.7186 0.0438,-4.3855 -2.29192,-8.37685 -5.10411,-11.58074 -0.87402,-1.24918 -1.38032,-2.76085 -2.58499,-3.76513 -0.39177,-0.49156 -1.11153,-0.73252 -1.38741,-1.26528 -0.71589,-2.63357 -2.30861,-4.99929 -2.52899,-7.76883 -0.14833,-0.93838 -0.27354,-1.88025 -0.40685,-2.82085 1.99248,0.83506 4.01071,1.66422 5.75258,2.96699 3.99487,2.54577 8.71409,4.00035 12.12896,7.40556 1.47806,1.36183 3.24031,2.34852 4.91146,3.43534 4.00521,3.06744 7.56047,6.77804 12.00207,9.23724 0.94049,0.353 1.84084,0.7972 2.55116,1.5212 3.84961,3.1326 7.51072,6.556 10.63228,10.4141 1.67332,5.5434 2.83752,11.4048 6.11458,16.2912 0.35792,0.6182 0.90886,1.149 1.24824,1.7461 1.40796,4.1228 4.85043,7.1383 8.41843,9.4354 0.48452,0.1651 0.75885,0.5063 1.00257,0.9423 2.16071,2.9668 6.37459,4.1983 9.78081,2.8041 2.47362,-0.5031 5.06429,-0.3648 7.47132,-1.2183 0.81994,-0.225 1.57974,-0.6804 2.37262,-0.9283 1.62426,0.1359 2.89621,1.3058 4.23815,2.1164 3.83718,2.6493 7.12957,5.9869 11.18922,8.3424 2.68837,1.5023 6.01538,2.0367 8.93935,0.9083 4.87689,-1.6305 8.64034,-6.6248 8.21392,-11.8493 -0.34117,-3.4438 -2.78309,-6.1042 -4.94628,-8.6005 -1.65726,-1.9152 -3.48357,-3.742 -5.28512,-5.4761 0.86833,-1.3784 1.71932,-2.7885 2.41115,-4.2537 1.47405,-1.4505 2.66541,-3.2339 3.78807,-4.9064 1.66074,2.3531 3.65374,4.5349 6.06919,6.1242 0.84341,0.3578 1.15143,1.3047 1.86558,1.8389 2.05547,1.9739 4.88297,3.004 7.69414,3.1794 2.30001,0.8805 4.82158,0.3904 7.08964,-0.3253 2.17353,-0.1855 4.37179,-0.5569 6.3129,-1.6042 3.55993,-1.6011 6.50911,-4.2272 9.79159,-6.2769 2.78818,-0.9989 4.74705,-3.3312 6.83517,-5.3111 1.81815,1.6299 4.05946,2.6649 6.21875,3.7421 1.16133,1.0792 2.48673,1.9976 4.02732,2.4366 3.76022,1.2002 7.7958,0.4567 11.51213,-0.5359 2.8381,-0.8324 5.61606,-2.3932 7.26719,-4.9046 3.50204,-1.8896 6.35395,-4.7289 9.32736,-7.3264 3.80216,-3.5103 7.52835,-7.1327 10.83084,-11.1228 0.91965,-1.19642 1.37734,-2.71089 2.55565,-3.70214 1.29129,-1.35689 2.56309,-2.77335 3.42679,-4.45018 1.2443,3.02315 3.6638,5.33656 5.7844,7.75302 2.2922,2.4219 4.6685,4.8844 7.6226,6.493 0.9756,0.4066 1.9824,0.7617 2.7928,1.4618 3.7676,2.4672 7.9761,4.2573 12.3328,5.3719 4.895,0.9737 9.8207,-0.4157 14.5219,-1.6882 4.851,-1.3909 9.5756,-3.5419 13.3624,-6.9353 1.4844,-1.1415 3.1957,-1.932 4.7413,-2.9816 0.9072,6.7943 0.6571,13.7155 2.1924,20.4378 0.1283,0.8946 0.714,1.71 0.542,2.6188 -0,1.8526 0.3939,3.7376 1.3496,5.3418 0.072,2.9203 0.3764,6.013 2.08,8.4863 0.5465,4.183 1.1363,8.6279 3.791,12.0738 2.5926,3.4606 7.372,4.9493 11.5054,3.8351 3.7281,-0.7631 7.2732,-2.3018 11.063,-2.776 3.5807,-0.9184 6.0018,-4.3518 6.5697,-7.8806 1.0176,-4.3558 1.8913,-8.7583 2.3971,-13.2034 0.2221,-3.4597 -1.0362,-7.1403 -3.8652,-9.2793 -1.3666,-1.1516 -3.1553,-1.6198 -4.5996,-2.6289 -0.4917,-1.2896 -0.4503,-2.7126 -0.7352,-4.0555 -0.6816,-4.8587 -1.8114,-9.8597 -2.4367,-14.5891 -0.514,-4.25196 -0.7309,-8.64826 -0.8711,-12.85542 -0.1244,-5.63392 -0.1959,-11.27285 -0.056,-16.90679 0.071,-1.09405 0.084,-2.10215 0.3338,-3.17329 1.4204,-1.75385 2.8158,-3.61038 3.3857,-5.83539 0.4132,-1.80602 1.677,-3.21556 2.5543,-4.80367 1.4542,-2.32246 2.6808,-4.80228 3.3849,-7.45954 0.4676,-1.07079 1.1817,-2.01807 1.5949,-3.12199 1.7128,-4.25348 3.0419,-8.66641 3.9767,-13.15637 1.0613,-1.29419 1.4817,-2.9664 1.7473,-4.57508 1.4717,-2.91921 0.9376,-6.27318 1.4447,-9.39992 0.3041,-2.87423 1.0978,-5.65904 1.8067,-8.44949 0.2763,-1.20676 0.2548,-2.46918 0.2174,-3.68234 1.5093,-4.07765 1.3736,-8.50069 1.4587,-12.78067 -0.035,-6.88469 -0.1972,-13.77084 -0.5368,-20.64675 -0.3335,-6.0075 -0.9552,-12.0852 -3.0316,-17.77352 -1.137,-3.22241 -1.7387,-6.6123 -3.045,-9.77959 -3.6297,-9.07248 -9.5858,-17.24782 -17.257,-23.31902 -4.0089,-2.96088 -9.0531,-4.34134 -14.0094,-4.17701 -0.3945,-0.001 -0.7891,0.001 -1.1836,0.001 z m -972.09769,36.14063 c 2.46775,6.61459 4.29257,13.4467 6.16595,20.24742 1.19979,4.49519 2.54909,9.1555 2.98053,13.7018 0.74349,7.53559 1.16986,15.08896 2.11429,22.60723 0.28106,3.94417 0.17489,7.90984 0.0336,11.80111 -0.33696,8.1123 -0.94282,16.23852 -2.20216,24.32906 -0.50474,3.19242 -1.2955,6.3445 -1.44597,9.58533 -0.093,1.86747 -0.20301,3.91582 -1.52747,5.37829 -2.0129,2.71359 -2.66343,6.1206 -3.22801,9.37508 -0.82327,2.04052 -1.39442,4.18598 -1.53532,6.38679 -0.75863,0.93406 -1.20891,2.08667 -1.50586,3.24414 -1.25146,-8.43272 -2.42239,-16.86992 -3.05109,-25.34315 -0.62126,-6.64004 -2.121699,-13.16416 -2.64482,-19.81717 -0.520493,-6.00066 -1.191005,-11.98815 -1.973478,-17.95912 -0.09685,-1.47252 0.310625,-2.91453 0.310384,-4.38735 0.649084,-10.20314 0.468356,-20.38938 1.156159,-30.57358 0.149337,-2.09826 0.286645,-4.06306 0.565284,-6.1924 0.446735,-3.97053 2.011821,-7.71655 2.388031,-11.69907 0.38233,-2.58962 0.53416,-5.24482 1.2339,-7.76644 0.84838,-0.92363 1.53679,-1.9842 2.09766,-3.10352 l 0.0346,0.0938 z m 980.13089,6.33008 c 0.3474,1.23805 1.0287,2.34079 1.4726,3.5332 1.1425,4.15355 1.7703,8.42836 2.4459,12.67742 0.2673,2.0846 0.6081,4.19796 0.5893,6.29133 -1.0151,3.58516 -0.059,7.30326 -0,10.93945 -0.2015,1.02977 -0.72,1.98508 -0.9112,3.02928 -0.8294,3.39568 -0.9411,6.92231 -1.8071,10.31197 -0.3434,1.86856 -0.5419,3.75927 -0.7446,5.64703 -0.2827,-2.59862 -0.8396,-5.15425 -1.3407,-7.71443 -0.1,-0.75043 -0.1705,-1.48335 -0.214,-2.08244 -0.2883,-3.89886 -0.43,-7.81077 -0.5062,-11.66304 -0.1226,-8.18915 -0.1657,-16.38138 -0.034,-24.57062 0.043,-2.03293 0.086,-4.00331 0.1847,-6.06126 0.3175,-0.20137 0.6937,-1.39641 0.7978,-0.56646 0.023,0.0762 0.046,0.15238 0.069,0.22857 z m -853.75785,3.89453 c -6.57914,0.23825 -13.39523,1.35875 -19.00283,5.01935 -2.58948,1.7403 -4.19171,4.48298 -6.27256,6.73455 -1.89214,2.20679 -3.45158,4.78173 -3.9684,7.67819 -1.08559,5.02891 -0.10548,10.2681 1.62048,15.03553 2.38003,5.70095 7.3797,9.8915 12.81979,12.56899 5.63242,2.85559 11.66815,4.93679 17.8711,6.12322 5.35278,0.90369 11.20476,0.537 15.89642,-2.42399 1.1945,-0.73302 2.22048,-1.73861 3.44757,-2.40421 4.35907,-1.11845 7.56982,-4.80836 9.30498,-8.8151 1.79873,-3.94588 1.79978,-8.70615 -0.24376,-12.56098 -0.93604,-1.81628 -2.22903,-3.43032 -3.68958,-4.85204 1.31361,-3.27832 1.10924,-7.26947 -1.06708,-10.1415 -1.88176,-2.65256 -4.52377,-4.61412 -6.94464,-6.7374 -3.22388,-2.58602 -7.12597,-4.40699 -11.27097,-4.78347 -2.81316,-0.40289 -5.66224,-0.48484 -8.50052,-0.44114 z m 367.65821,27.80664 c -2.6166,0.1013 -5.04475,1.30609 -7.66679,1.37161 -2.91367,0.30328 -5.93234,0.92326 -8.3254,2.71432 -3.77617,0.74353 -7.2326,2.54498 -10.63672,4.27149 -1.95053,1.06633 -3.8554,2.23767 -5.57422,3.65234 -2.53632,0.47535 -4.86222,2.08888 -6.08789,4.375 -2.08918,1.29236 -4.15914,2.62533 -6.01143,4.24803 -2.27489,1.86538 -4.31984,4.024 -5.99248,6.44203 -2.8919,2.62054 -3.85805,6.59544 -4.51508,10.29038 -0.69297,3.82654 -0.59889,8.07017 1.63123,11.40694 2.09375,3.34264 5.10789,5.98953 8.22068,8.35601 1.06892,0.80472 2.3509,1.28379 3.43075,2.04568 2.92457,2.42371 6.85246,2.71059 10.42969,3.4082 1.66834,0.29748 3.22041,0.9771 4.72702,1.72558 0.72171,0.30937 1.45429,0.5965 2.20462,0.82911 0.45044,2.0961 1.70152,4.02499 3.48047,5.23242 -2.57056,2.87028 -5.4104,5.49824 -7.80348,8.52537 -1.01294,0.9201 -2.28303,1.59794 -3.60575,1.93806 -1.72834,0.17598 -3.48119,0.55944 -4.91304,1.59907 -1.3086,0.91573 -2.35757,2.21788 -2.91211,3.7207 -2.03714,1.44622 -3.64561,3.50098 -5.99804,4.48242 -0.74993,0.34797 -1.55204,0.77672 -2.33594,0.92578 -0.86645,-0.69369 -1.91271,-1.15467 -2.77752,-1.82041 -1.84389,-2.25863 -3.53417,-4.67029 -4.87184,-7.26044 -0.94255,-3.62837 -3.26808,-6.67301 -4.58111,-10.14766 -0.44857,-1.85626 -0.64467,-3.7776 -1.36285,-5.56369 -1.30491,-3.68124 -3.07325,-7.18561 -4.2016,-10.93241 -1.07204,-3.21813 -2.10499,-6.50057 -3.91602,-9.39648 -0.37609,-3.06278 -1.06861,-6.0925 -2.27443,-8.94051 -1.43272,-3.59482 -3.3595,-7.14428 -6.34543,-9.68173 -3.49412,-2.74874 -8.2166,-3.19145 -12.48987,-2.62255 -3.60185,0.4466 -7.02475,2.47781 -8.90403,5.62067 -2.22052,3.33056 -3.65848,7.13142 -4.66558,10.98706 -0.85173,3.74304 -1.19122,7.61464 -2.54915,11.23084 -1.11851,3.46625 -2.56309,6.85551 -3.25894,10.43933 -0.0572,0.59207 -0.077,0.93178 -0.18152,1.56239 -0.89851,3.68952 -2.73039,7.05424 -4.20409,10.53145 -0.53212,-2.20319 -0.95798,-4.43409 -1.11146,-6.6964 -0.22394,-1.61785 -0.71357,-3.23101 -1.65026,-4.58485 -0.17219,-4.50188 -1.30706,-8.92619 -2.9375,-13.10937 -1.24213,-2.89106 -2.78898,-5.85645 -5.46029,-7.67195 -5.74501,-4.08824 -14.35279,-3.23771 -19.23226,1.83379 -2.85634,2.83539 -4.33379,7.13734 -3.32159,11.09583 0.41734,1.80708 0.9678,3.5887 1.119,5.44646 0.28191,1.94365 0.52504,3.93835 0.69898,5.80113 0.29175,3.05494 0.46502,6.33694 0.36999,9.27599 -0.10233,2.32861 -0.33045,4.65156 -0.68555,6.95508 -0.0756,0.42548 -0.16617,1.04213 -0.2616,1.5438 -0.69064,3.55841 -1.45067,7.15605 -3.05306,10.43402 -1.03772,2.23256 -2.05647,4.49739 -2.56815,6.91671 -1.24863,1.6428 -1.53188,3.86331 -3.06935,5.30587 -0.6144,0.7222 -1.27272,1.4193 -2.04784,1.9715 -2.6449,-0.5828 -5.2378,-1.5764 -7.50195,-3.07425 -2.49063,-1.75676 -4.23757,-4.74731 -3.94073,-7.85482 0.10508,-1.97794 0.27376,-4.00163 -0.23701,-5.9401 1.77073,-4.96812 1.89859,-10.30588 2.20361,-15.51516 0.25729,-6.74239 0.25824,-13.55122 -0.9165,-20.21531 -0.88398,-4.145 -3.2922,-8.23879 -7.25641,-10.06905 -3.70423,-1.74742 -8.01656,-1.27768 -11.79046,-0.011 -0.51826,0.31618 -0.66672,-0.51942 -1.01562,-0.77754 -2.19447,-2.77033 -5.20536,-5.06621 -8.75876,-5.66552 -3.26205,-0.63288 -6.62454,-0.47293 -9.9117,-0.15043 -5.11884,0.71445 -9.89409,3.24525 -13.55485,6.86562 -2.07016,1.93134 -4.08339,4.0147 -5.4657,6.50174 -0.30548,1.07426 -1.31784,1.67058 -1.98516,2.50544 -2.43686,2.51811 -4.75743,5.26911 -5.99931,8.59343 -0.46755,1.0308 -0.61094,2.20481 -1.12726,3.19562 -1.55047,2.15408 -2.19633,4.76618 -2.95704,7.26563 -2.49191,2.4178 -3.24737,5.94023 -4.19648,9.14647 -0.93969,3.40694 -1.4316,6.92507 -1.90335,10.41247 -1.71936,3.80533 -1.16556,8.10112 -0.72029,12.11589 0.79579,6.5082 2.12208,12.9841 4.34622,19.161 1.90671,4.813 5.12924,8.9499 8.41015,12.8964 2.26733,2.5443 4.7096,5.1232 7.8658,6.5426 2.69034,1.0927 5.64759,0.7881 8.48154,0.8959 4.26199,0.01 8.64976,-0.7214 12.32582,-2.9921 6.80833,-3.7993 12.46365,-9.2807 17.86607,-14.8244 0.39279,-0.1828 0.82189,0.6487 1.24994,0.8571 3.42729,2.8678 7.39978,5.445 11.92693,6.0074 0.72942,-0.036 1.34645,0.2538 1.97728,0.5809 3.34351,1.4154 7.06768,1.283 10.62228,1.152 2.65971,-0.188 5.28041,-0.8708 7.68212,-2.0261 2.11475,-0.6349 4.29528,-1.2274 6.09833,-2.5621 4.33893,-2.8645 8.05209,-6.5543 11.64669,-10.2808 1.00671,-1.087 1.97118,-2.2148 2.86197,-3.399 1.88194,3.0176 4.82548,5.5968 8.43265,6.1578 3.34698,0.5887 6.88792,-0.4241 9.52633,-2.5211 3.65867,-0.7809 6.47522,-3.6035 8.48192,-6.6158 0.98523,-1.5438 1.27257,-3.4227 2.39198,-4.8901 1.30448,-2.0217 2.61361,-4.0937 3.32923,-6.40232 1.5183,-1.94127 2.13288,-4.40046 3.55709,-6.402 1.48332,-2.4456 2.99085,-4.8968 4.23197,-7.4691 1.70703,-1.75194 2.5084,-4.17345 2.82617,-6.55273 0.41713,-0.47944 0.7854,-1.14818 1.08204,-1.61328 0.41248,1.11661 1.18231,2.05659 1.86958,2.99391 0.53556,1.83007 1.61476,3.43454 2.4867,5.09887 0.35369,2.45543 1.40724,4.80908 3.12809,6.61034 0.69058,0.89492 0.79206,2.09375 1.30273,3.0918 0.86239,2.06947 2.2977,3.82011 3.56881,5.64565 1.66144,2.22006 3.51086,4.29776 5.51909,6.20986 -2.03703,2.452 -4.12403,4.9508 -5.31796,7.942 -1.98415,2.9208 -4.31807,5.7865 -5.06486,9.3236 -1.03287,1.2317 -1.98586,2.542 -2.56076,4.057 -0.61335,1.373 -0.8682,2.8863 -1.09157,4.3451 -1.56258,2.5173 -2.51711,5.3554 -3.42775,8.1584 -1.7489,5.7977 -2.21324,11.8791 -2.30844,17.9051 -0.17334,7.8371 -0.15968,15.679 -0.006,23.5163 0.11818,3.6325 0.23197,7.2874 0.82271,10.8775 0.18486,0.5106 0.34617,1.0152 0.13713,1.5461 -0.32233,1.8447 -0.0232,3.7304 0.41755,5.5203 -0.049,1.9356 0.82685,3.716 1.66174,5.4009 1.58522,5.4024 1.66489,11.1633 3.62982,16.4642 0.42925,0.7825 0.14672,1.7572 0.40588,2.5991 0.36545,2.8395 1.05537,5.6753 2.39241,8.2233 0.12173,1.672 0.79965,3.253 1.66797,4.6601 0.36344,2.5706 1.54956,4.9271 2.05948,7.4645 1.24447,4.5715 2.14011,9.2407 3.57333,13.7582 0.33462,0.9032 1.03842,1.6479 1.09375,2.6387 0.35414,1.6042 1.2348,3.046 2.29181,4.2722 1.97802,5.0187 3.16311,10.3849 5.95642,15.0556 0.7026,1.2437 1.55206,2.4264 1.85438,3.8478 0.59241,2.3754 1.77304,4.525 2.82122,6.7169 0.77137,1.5542 0.87277,3.3215 1.59375,4.8965 1.10408,2.7877 2.69823,5.4019 3.30365,8.3681 0.71661,2.306 2.39634,4.1277 3.96002,5.8819 0.78472,2.6567 2.47424,4.8934 3.83008,7.2695 -0.0185,2.3305 1.12581,4.5323 2.72724,6.1582 1.77908,4.1211 4.91355,7.4289 7.18661,11.2535 0.54047,1.5537 1.18642,3.1341 2.44552,4.2544 0.48574,0.604 0.71527,1.4004 1.25481,1.9895 0.75087,1.0724 1.91159,1.7629 2.5758,2.8977 1.8731,2.5779 4.33541,4.6691 6.19549,7.2464 1.49899,3.5488 4.35393,6.2658 7.05984,8.9113 4.02937,3.7384 8.3871,7.2971 13.48301,9.471 4.14349,1.7559 8.90169,2.2419 13.22207,0.8395 5.51801,-1.7507 9.82203,-5.9548 13.28349,-10.4388 5.23696,-6.725 8.83745,-14.6118 11.08594,-22.8062 0.90106,-3.3266 1.97873,-6.611 2.91888,-9.9425 0.67579,-2.6307 1.15848,-5.3201 1.28005,-8.0371 1.63022,-2.66 1.90017,-5.8432 1.99278,-8.8883 0.003,-0.8282 0.09,-1.6991 0.49975,-2.3659 0.9083,-2.1526 1.0593,-4.5345 1.28804,-6.836 1.02403,-13.2818 1.13902,-26.6931 1.18173,-40.0406 -0.0456,-6.0131 -0.0648,-12.0441 -0.6886,-18.0294 -0.49178,-3.1505 -0.92016,-6.3147 -1.02623,-9.5061 -0.30124,-5.2572 -0.18171,-10.6089 -1.47013,-15.7477 -0.45491,-1.0915 -0.93262,-2.1895 -0.95577,-3.3922 -0.51051,-4.2418 -0.68639,-8.5199 -1.36679,-12.7421 -1.14923,-8.5383 -2.54652,-17.082 -5.0024,-25.3534 -0.75123,-2.1883 -1.63753,-4.3758 -1.74505,-6.7153 -1.36263,-10.1487 -3.35864,-20.1965 -5.06893,-30.2828 -1.19594,-6.8008 -2.30108,-13.6853 -3.4849,-20.5134 -0.45679,-2.2494 -0.95788,-4.5347 -2.06561,-6.5672 0.0447,-4.6078 -1.50403,-9.0832 -1.28283,-13.69983 -0.0707,-2.23527 -0.61341,-4.50858 -1.87342,-6.38225 -0.17645,-1.91411 -0.64429,-3.8554 -1.71875,-5.47461 -0.0715,-2.78599 -0.31288,-5.60568 -0.41016,-8.36328 1.05868,-0.60929 1.88143,-1.54182 2.70165,-2.41205 4.71599,-2.4913 9.61385,-4.61471 14.43583,-6.8886 2.96208,-1.39686 6.0333,-2.60221 9.26131,-3.21591 1.96878,-0.46333 3.88059,-1.17992 5.63835,-2.176 3.89188,-1.3768 8.23121,-1.89137 11.55656,-4.53723 3.04662,-2.3959 5.10654,-6.19202 5.07036,-10.1042 -0.20685,-3.9327 -3.44299,-7.53419 -7.41164,-7.89389 -3.06616,-0.44776 -6.11488,0.37371 -9.16656,0.57431 -4.72754,0.48117 -9.48002,1.10854 -13.99335,2.65943 -1.75059,0.53616 -3.43066,1.2986 -5.08632,2.051 -2.34754,0.29418 -4.6531,0.85842 -6.92025,1.52517 0.12704,-0.92453 -0.0291,-1.94293 0.33542,-2.80542 1.91234,-2.33828 2.699,-5.31412 3.44392,-8.17947 1.73027,-5.10959 2.60112,-10.5043 2.67883,-15.8944 -0.005,-5.40696 -0.96154,-10.96446 -3.68083,-15.70079 -2.15758,-3.70908 -5.5545,-6.66467 -9.54687,-8.24609 -3.20664,-1.33225 -6.68257,-1.72257 -10.01168,-2.63112 -1.484,-0.34904 -3.00672,-0.5493 -4.53324,-0.49388 z m -270.62305,22.42383 c -3.64854,0.16109 -7.59664,1.04187 -10.12269,3.88479 -3.00522,3.42288 -3.91671,8.0492 -4.6006,12.41545 -1.46608,9.5934 -1.01017,19.3257 -1.24351,28.99272 -0.0376,1.18342 -0.0779,2.62017 -0.12649,3.90128 -0.26727,6.00262 -1.10027,11.96185 -1.78507,17.92665 -0.17044,1.3451 -0.33549,2.5958 -0.52398,3.94356 -1.32475,-2.61413 -3.52006,-4.64551 -5.04154,-7.1225 -0.81067,-2.08443 -2.12101,-3.90798 -3.54633,-5.6114 -2.99196,-3.71626 -6.96775,-6.92504 -11.74761,-7.87068 -3.288,-0.72641 -6.8997,-1.16151 -10.07663,0.23349 -3.064,1.3092 -5.23468,4.02425 -6.79708,6.8768 -1.74514,3.18472 -2.07061,7.10342 -0.76837,10.50527 1.54873,4.28922 4.97414,7.44787 7.82118,10.87339 0.66006,0.74138 1.05485,1.6295 1.34265,2.56579 0.89777,2.18203 2.53601,4.00327 4.46021,5.34087 1.9683,3.7413 4.34884,7.2485 6.71719,10.7442 2.09945,3.0379 4.49009,5.8769 6.31607,9.0978 2.02977,3.3236 4.1419,6.8146 7.44981,9.0159 3.25191,2.0772 7.70079,2.2605 10.9734,0.1264 4.20152,-2.3533 7.79246,-5.6464 11.08948,-9.1207 0.80992,-0.8929 1.34716,-2.0128 2.34236,-2.721 1.71551,-1.6095 2.54973,-3.9553 2.72742,-6.252 1.72939,-3.9613 1.4465,-8.4382 2.97018,-12.4604 1.01478,-3.65803 1.13561,-7.48335 1.43978,-11.24666 0.86897,-12.65247 0.98597,-25.33885 1.28031,-38.01321 0.10599,-1.67262 -0.0118,-3.40474 0.45572,-5.02386 1.02859,-2.45941 0.74316,-5.17085 0.70898,-7.76563 0.62792,-1.11401 1.49262,-2.09701 1.91944,-3.32359 2.20996,-4.8629 1.65676,-11.07841 -1.9982,-15.10727 -2.86705,-3.28985 -7.3173,-4.96606 -11.63608,-4.80546 z m 270.34766,6.88867 c 0.23351,2.49335 0.0448,5.13035 -0.9961,7.41992 -1.41073,1.23322 -2.34751,2.93624 -2.83789,4.73047 -3.09789,-2.21802 -6.64067,-3.80529 -10.31445,-4.78906 -0.94186,-0.19013 -1.87069,-0.36831 -2.74847,-0.76902 -0.74824,-0.17841 -0.88249,-0.42828 -0.0667,-0.51702 2.50372,-0.68113 4.72303,-2.0999 6.80927,-3.59873 1.71437,-0.21836 3.43005,-0.69264 4.87086,-1.68469 0.62336,-0.56156 1.53662,-0.32147 2.3078,-0.49403 0.99006,-0.10991 1.98752,-0.20516 2.97564,-0.29784 z m 289.90625,30.15429 c 0.48675,0.4346 1.21093,0.76374 1.22851,1.50586 0.40573,1.54561 1.23704,2.94707 2.04688,4.28907 0.16239,1.46306 0.94358,2.74929 1.33019,4.13875 0.55682,3.3466 0.5961,6.7554 0.66776,10.14013 0.0282,3.38755 -0.16719,6.81614 -1.2007,10.06594 -1.46646,5.10632 -3.27631,10.31251 -6.27619,14.7954 -1.65567,1.97691 -3.35499,4.15177 -3.64606,6.80317 -1.26429,1.4907 -2.64981,2.898 -3.87891,4.4043 -0.94344,0.4074 -1.81221,0.982 -2.56445,1.6816 -1.18796,-1.1885 -2.54669,-2.2137 -3.92479,-3.1456 -1.96828,-2.9834 -5.02996,-5.0742 -6.87209,-8.14737 0.8039,-2.76312 0.91192,-5.66702 1.2241,-8.51385 0.11226,-0.68227 0.0221,-1.44713 0.25701,-2.07932 2.33477,-2.74969 2.67051,-6.54222 2.61338,-10.00289 -0.0939,-0.6457 0.59225,-1.0865 0.75317,-1.69105 0.41868,-0.81621 0.61266,-1.73465 0.92498,-2.57869 1.75594,-2.19527 2.9768,-4.74674 4.41291,-7.14396 1.05529,-1.02206 2.05712,-2.11669 2.76367,-3.41797 1.28329,-0.59987 2.27869,-1.63799 3.23438,-2.64453 1.62279,-1.11922 2.69129,-2.86481 3.38154,-4.67086 1.05584,-1.36454 2.32543,-2.56665 3.52471,-3.78813 z m -495.99219,14.87696 c 1.47478,3.9268 2.07242,8.10689 2.8235,12.21436 0.56165,3.64121 1.07584,7.34506 0.74936,11.03322 -0.14201,2.05383 -1.35315,3.77791 -2.07441,5.65117 -1.52562,3.63712 -2.45685,7.49361 -3.0922,11.37861 -0.65207,1.1632 -1.37691,2.3486 -2.25794,3.3235 -0.49648,0.097 -1.00027,0.5893 -1.43417,0.5749 -3.2785,-3.0644 -5.4815,-7.2588 -6.0509,-11.71826 -0.52184,-2.56634 -0.47544,-5.23043 0.15572,-7.7727 0.54561,-2.8875 1.76406,-5.5822 3.16278,-8.14697 1.38045,-2.76111 2.12579,-5.79038 3.47801,-8.55907 1.29107,-2.01495 3.07313,-3.78357 3.69454,-6.16431 0.22044,-0.62306 0.1177,-1.3662 0.7423,-1.77331 0.0236,0.0439 0.10068,-0.19589 0.10341,-0.0411 z m 195.4082,26.86328 c 0.62388,2.48347 0.98792,5.02044 1.48828,7.52738 0.43169,1.4234 0.93809,2.8372 0.9589,4.3438 0.25099,3.4579 0.58164,6.9187 1.20843,10.3303 0.32627,1.8489 1.01944,3.602 1.84345,5.2778 0.68239,2.0021 1.1675,4.0843 1.44389,6.1811 0.0177,1.0303 -0.33932,2.044 -0.17537,3.0857 0.1048,1.6273 0.73147,3.173 1.50211,4.5824 0.76788,3.8201 1.00236,7.7269 1.85187,11.5338 0.9683,5.2921 2.56282,10.4225 3.22608,15.7723 0.24362,2.8842 1.018,5.6913 2.07024,8.3789 1.66579,4.9853 1.44471,10.3583 2.99319,15.3727 0.80672,3.1588 0.68323,6.5039 1.72208,9.6178 0.3055,1.1915 1.02172,2.2396 1.27505,3.4394 0.26959,3.7425 0.0392,7.6376 1.5322,11.1693 0.84716,2.3764 1.11282,4.7587 1.56354,7.2099 0.94048,5.9055 1.68458,11.9351 2.28317,17.8259 0.3077,3.1242 0.5592,6.1393 0.75781,9.2285 0.40512,6.1095 0.50218,12.4026 0.62218,18.5878 0.0841,6.5628 0.14833,13.1318 -0.0488,19.6917 -0.35088,3.72 -0.9999,7.4049 -1.35323,11.1254 -0.89489,7.2928 -1.56126,14.6267 -2.9223,21.8517 -0.5905,2.0797 -1.39968,4.0996 -1.73866,6.2459 -0.24714,1.344 -0.62983,2.6769 -1.42415,3.8059 -0.82768,1.4858 -1.18544,3.2076 -1.14076,4.8887 -0.51216,1.2785 -0.87643,2.6284 -1.24034,3.9396 -0.8973,1.1604 -1.33193,2.6321 -2.43895,3.6363 -0.2933,0.5001 -0.9326,0.021 -1.4048,0.1117 -0.67145,-0.22 -1.24958,-0.7669 -1.93359,-1.0254 -0.6417,-0.3681 -1.43357,-0.486 -2.03846,-0.8741 -1.37454,-1.6882 -1.66003,-4.0095 -3.13817,-5.6407 -0.54924,-0.745 -1.29277,-1.3347 -1.93298,-1.9757 -1.68059,-3.6538 -4.14202,-6.8766 -6.85864,-9.8151 -1.02811,-1.1701 -2.09828,-2.3326 -2.71495,-3.7838 -2.53785,-4.5936 -5.42736,-8.9832 -8.37628,-13.3206 -0.71389,-1.0541 -1.57921,-2.0439 -1.82911,-3.3317 -0.46195,-1.6673 -1.17796,-3.2836 -2.21102,-4.686 -0.9845,-3.417 -3.17605,-6.2789 -4.88824,-9.3399 -1.11168,-3.1923 -2.48343,-6.3623 -4.5727,-9.0507 -0.43748,-0.7756 -0.49737,-1.7544 -0.85109,-2.5928 -0.63956,-1.9986 -1.61919,-3.8741 -2.78452,-5.6098 -2.35384,-5.0236 -3.66007,-10.4416 -5.51869,-15.6509 -1.88922,-5.7201 -3.97642,-11.4612 -5.77099,-17.2614 -0.90376,-2.6428 -1.35698,-5.4156 -2.2981,-8.044 -0.4406,-1.3854 -1.33295,-2.5647 -1.85669,-3.9056 0.20833,-2.605 -0.26215,-5.2551 -1.29492,-7.6582 -0.43997,-2.3628 -1.3182,-4.6547 -2.69922,-6.625 0.17285,-3.9593 -0.63132,-7.8581 -1.38004,-11.7223 -0.95513,-4.7186 -1.23395,-9.5365 -1.57303,-14.329 -0.40873,-6.7301 -0.62957,-13.4708 -0.96221,-20.2041 -0.0135,-2.6753 0.37874,-5.5427 0.84106,-8.0317 0.28989,-1.512 0.52927,-3.0525 1.27539,-4.4219 1.36849,-2.872 1.37293,-6.1536 2.5289,-9.0913 1.15047,-2.4192 2.67427,-4.6913 3.35977,-7.309 1.47047,-2.0774 3.44924,-3.7526 4.80274,-5.9239 1.68512,-2.4637 2.88448,-5.2143 3.91992,-8 0.92107,-1.4856 2.5672,-2.3358 3.47238,-3.8429 0.55065,-0.8078 1.61455,-1.0112 2.41201,-1.514 2.77192,-1.3523 5.62219,-2.5735 8.54264,-3.5569 2.38758,-0.3831 4.82965,-1.35 6.28519,-3.3767 0.60899,-1.056 1.79523,-1.4943 2.71878,-2.2126 1.49456,-0.9669 2.93007,-2.0559 4.27603,-3.198 2.61398,-0.8568 4.73382,-3.04205 5.54492,-5.66606 0.85717,-1.07937 1.83182,-2.06118 2.85547,-2.98242 0.0645,0.27083 0.12891,0.54167 0.19336,0.8125 z m -703.26562,46.06058 c 0.69138,-0.1447 1.08924,0.5567 1.70568,0.7427 2.7257,1.5143 5.90358,1.6714 8.93564,1.947 0.99005,0.1721 2.10937,0.7543 2.85672,1.1306 1.32266,0.7007 2.639849,1.4362 4.072269,1.8926 1.577784,2.0461 4.108755,3.2986 6.683593,3.3964 3.398217,1.8911 6.389185,4.4105 9.417812,6.8276 5.223004,4.3104 10.112537,9.0283 14.578282,14.1197 1.346537,2.8646 3.721507,5.0216 5.63086,7.4863 0.357657,1.2361 0.693579,2.515 1.255765,3.693 0.951046,2.124 2.295328,4.0762 3.966891,5.6977 0.652003,3.4842 1.798891,6.8523 2.669916,10.285 1.098929,4.058 2.311034,8.2364 3.306646,12.1759 0.234943,0.9769 0.490373,1.9563 0.691407,2.8555 -1.079505,-0.1113 -1.947948,-0.2608 -3.043122,-0.4287 -5.127718,-0.8677 -10.386614,-0.4761 -15.498114,-1.4552 -4.251521,-0.9571 -8.025402,-3.2856 -12.19628,-4.4986 -2.228942,-0.6662 -4.701473,-0.8118 -6.59591,-2.3044 -1.500976,-1.1227 -3.13143,-2.1998 -5.031809,-2.4518 -1.477871,-1.3014 -3.061568,-2.4861 -4.753906,-3.4941 -1.060755,-2.1419 -3.03651,-3.8227 -5.3418,-4.4747 -4.03571,-3.3397 -7.63167,-7.1738 -11.1237,-11.067 -0.70527,-0.7269 -1.18594,-1.6058 -1.54622,-2.5423 -0.80141,-1.6636 -2.15179,-2.9579 -3.46463,-4.2117 -2.40609,-2.9621 -4.10004,-6.4434 -6.64084,-9.304 -0.97957,-4.1493 -3.29642,-7.8751 -4.04272,-12.0953 -0.2314,-0.9773 -0.50701,-2.1056 -0.14514,-3.1465 0.33321,-1.5468 0.17446,-3.1866 0.58435,-4.7035 1.02357,-1.1106 1.64767,-2.51 2.29572,-3.841 0.57973,-0.7013 1.1506,-1.6242 2.17409,-1.6222 2.5829,-0.4119 5.20975,-0.4246 7.81534,-0.5954 0.26107,-0 0.52213,-0.01 0.78321,-0.014 z"
       style="fill:#66d77a;fill-opacity:1;stroke:#ffffff"
       id="path74" />
  </g>
</svg>
